<?xml version="1.0" encoding="UTF-8" standalone="no"?>
<!-- Created with Inkscape (http://www.inkscape.org/) -->

<svg
   width="64"
   height="64"
   viewBox="0 0 64 64"
   version="1.1"
   id="svg1"
   xmlns="http://www.w3.org/2000/svg"
   xmlns:svg="http://www.w3.org/2000/svg">
  <defs
     id="defs1" />
  <g
     id="layer2"
     style="display:inline">
    <path
       id="path13"
       style="display:inline;fill:#67aae4;fill-opacity:1;stroke:none;stroke-width:16;stroke-opacity:1"
       d="m 36.638672,9.0371094 c 0.311566,1.6975856 0.611434,3.2313386 0.902344,4.5683596 a 19.049999,19.049999 0 0 1 12.347656,12.333984 c 1.346248,0.291602 2.889801,0.592062 4.601562,0.904297 A 23.283333,23.283333 0 0 0 36.638672,9.0371094 Z m -9.802734,0.023437 A 23.283333,23.283333 0 0 0 9.0878906,26.851562 C 10.765137,26.543324 12.283547,26.247061 13.607422,25.958984 A 19.049999,19.049999 0 0 1 25.939453,13.613281 c 0.288801,-1.333189 0.58754,-2.861226 0.896485,-4.5527346 z M 54.494141,36.632812 c -1.710593,0.313701 -3.254234,0.615476 -4.59961,0.908204 A 19.049999,19.049999 0 0 1 37.560547,49.888672 c -0.289682,1.337384 -0.588454,2.870397 -0.898438,4.568359 A 23.283333,23.283333 0 0 0 54.494141,36.632812 Z M 9.0917969,36.669922 A 23.283333,23.283333 0 0 0 26.857422,54.445312 C 26.546925,52.754325 26.248989,51.225311 25.958984,49.892578 A 19.049999,19.049999 0 0 1 13.613281,37.560547 c -1.324832,-0.28699 -2.842939,-0.583799 -4.5214841,-0.890625 z" />
  </g>
</svg>
